<svg width="101" height="90" viewBox="0 0 101 90" fill="none" xmlns="http://www.w3.org/2000/svg">
<rect x="0.769531" y="0.5" width="99" height="89" rx="4.5" stroke="#9747FF" stroke-dasharray="10 5"/>
<path d="M62.3507 57.073C62.3507 58.9224 61.9259 60.6796 61.1583 62.2444L61.0842 62.3944C59.1046 66.3008 54.9972 69 50.2664 69C45.5238 69 41.4282 66.3008 39.4485 62.3944L39.3745 62.2444L21.7527 27.471C20.2485 24.4989 22.4385 21 25.8094 21H42.7025C44.421 21 45.9876 21.9574 46.7553 23.4723L50.2625 30.3931L61.1544 51.9016C61.9259 53.4665 62.3507 55.2275 62.3507 57.073Z" fill="url(#paint0_linear_143_57115)"/>
<path d="M74.7317 21C78.1025 21 80.2926 24.4989 78.7845 27.471L63.7813 57.073L61.1509 62.2445C61.9225 60.6796 62.3434 58.9186 62.3434 57.073C62.3434 55.2275 61.9186 53.4665 61.1509 51.9016L50.2629 30.3931L53.7702 23.4723C54.5379 21.9574 56.1083 21 57.823 21H74.7317Z" fill="url(#paint1_linear_143_57115)"/>
<defs>
<linearGradient id="paint0_linear_143_57115" x1="21.2694" y1="44.9998" x2="62.3497" y2="44.9998" gradientUnits="userSpaceOnUse">
<stop stopColor="#FA4001"/>
<stop offset="0.333333" stopColor="#CD0D14"/>
<stop offset="0.666667" stopColor="#A91D1E"/>
<stop offset="1" stopColor="#812924"/>
</linearGradient>
<linearGradient id="paint1_linear_143_57115" x1="50.2635" y1="41.6235" x2="79.2712" y2="41.6235" gradientUnits="userSpaceOnUse">
<stop stopColor="#016DEA"/>
<stop offset="0.334096" stopColor="#005FCD"/>
<stop offset="0.634882" stopColor="#0052B1"/>
<stop offset="1" stopColor="#003B7E"/>
</linearGradient>
</defs>
</svg>
